<svg width="30" height="30" viewBox="0 0 30 30" fill="none" xmlns="http://www.w3.org/2000/svg">
<path d="M15 27.5C16.3807 27.5 17.5 26.3807 17.5 25C17.5 23.6193 16.3807 22.5 15 22.5C13.6193 22.5 12.5 23.6193 12.5 25C12.5 26.3807 13.6193 27.5 15 27.5Z" fill="#C5E2AC"/>
<path d="M15 7.5C16.3807 7.5 17.5 6.38071 17.5 5C17.5 3.61929 16.3807 2.5 15 2.5C13.6193 2.5 12.5 3.61929 12.5 5C12.5 6.38071 13.6193 7.5 15 7.5Z" fill="#C5E2AC"/>
<path d="M7.92871 24.5713C9.30942 24.5713 10.4287 23.452 10.4287 22.0713C10.4287 20.6906 9.30942 19.5713 7.92871 19.5713C6.548 19.5713 5.42871 20.6906 5.42871 22.0713C5.42871 23.452 6.548 24.5713 7.92871 24.5713Z" fill="#C5E2AC"/>
<path d="M22.0713 10.4287C23.452 10.4287 24.5713 9.30942 24.5713 7.92871C24.5713 6.548 23.452 5.42871 22.0713 5.42871C20.6906 5.42871 19.5713 6.548 19.5713 7.92871C19.5713 9.30942 20.6906 10.4287 22.0713 10.4287Z" fill="#C5E2AC"/>
<path d="M5.00003 17.5013C6.38143 17.5013 7.50128 16.3814 7.50128 15C7.50128 13.6186 6.38143 12.4988 5.00003 12.4988C3.61863 12.4988 2.49878 13.6186 2.49878 15C2.49878 16.3814 3.61863 17.5013 5.00003 17.5013Z" fill="#C5E2AC"/>
<path d="M25 17.5C26.3807 17.5 27.5 16.3807 27.5 15C27.5 13.6193 26.3807 12.5 25 12.5C23.6193 12.5 22.5 13.6193 22.5 15C22.5 16.3807 23.6193 17.5 25 17.5Z" fill="#C5E2AC"/>
<path d="M7.92871 10.4299C9.30942 10.4299 10.4287 9.31064 10.4287 7.92993C10.4287 6.54922 9.30942 5.42993 7.92871 5.42993C6.548 5.42993 5.42871 6.54922 5.42871 7.92993C5.42871 9.31064 6.548 10.4299 7.92871 10.4299Z" fill="#C5E2AC"/>
<path d="M22.0713 24.5725C23.452 24.5725 24.5713 23.4532 24.5713 22.0725C24.5713 20.6918 23.452 19.5725 22.0713 19.5725C20.6906 19.5725 19.5713 20.6918 19.5713 22.0725C19.5713 23.4532 20.6906 24.5725 22.0713 24.5725Z" fill="#C5E2AC"/>
</svg>
