<svg width="30" height="30" fill="none" xmlns="http://www.w3.org/2000/svg"><path d="M15 27.5a2.5 2.5 0 1 0 0-5 2.5 2.5 0 0 0 0 5ZM15 7.5a2.5 2.5 0 1 0 0-5 2.5 2.5 0 0 0 0 5ZM7.929 24.571a2.5 2.5 0 1 0 0-5 2.5 2.5 0 0 0 0 5ZM22.071 10.429a2.5 2.5 0 1 0 0-5 2.5 2.5 0 0 0 0 5ZM5 17.501A2.501 2.501 0 1 0 5 12.5 2.501 2.501 0 0 0 5 17.5ZM25 17.5a2.5 2.5 0 1 0 0-5 2.5 2.5 0 0 0 0 5ZM7.929 10.43a2.5 2.5 0 1 0 0-5 2.5 2.5 0 0 0 0 5ZM22.071 24.573a2.5 2.5 0 1 0 0-5 2.5 2.5 0 0 0 0 5Z" fill="#C5E2AC"/></svg>