<svg width="30" height="30" viewBox="0 0 30 30" fill="none" xmlns="http://www.w3.org/2000/svg">
<path d="M27.5 10C27.5121 9.91296 27.5121 9.82462 27.5 9.73754V9.63754C27.4785 9.56777 27.4492 9.50067 27.4125 9.43754C27.3963 9.40154 27.3752 9.3679 27.35 9.33754L27.225 9.17504L27.125 9.10004L26.975 8.98754L15.725 2.73754C15.535 2.62783 15.3194 2.57007 15.1 2.57007C14.8806 2.57007 14.665 2.62783 14.475 2.73754L3.225 8.98754L3.1125 9.07504L2.975 9.17504C2.93869 9.21591 2.90915 9.26233 2.8875 9.31254C2.84751 9.34841 2.81372 9.39064 2.7875 9.43754C2.75504 9.49238 2.72983 9.55121 2.7125 9.61254C2.70551 9.65391 2.70551 9.69616 2.7125 9.73754C2.62656 9.81164 2.55459 9.90055 2.5 10V20C2.50162 20.2228 2.56273 20.441 2.67701 20.6322C2.79129 20.8234 2.95459 20.9806 3.15 21.0875L14.4 27.3375C14.4517 27.3677 14.5061 27.3928 14.5625 27.4125H14.6875C14.8929 27.4624 15.1071 27.4624 15.3125 27.4125H15.4375L15.6125 27.3375L26.8625 21.0875C27.0556 20.979 27.2164 20.8211 27.3284 20.63C27.4404 20.4389 27.4996 20.2215 27.5 20V10ZM15 14.8375L6.325 10L9.775 8.10004L18.3125 12.975L15 14.8375ZM15 5.18754L23.675 10L20.875 11.5625L12.3375 6.67504L15 5.18754ZM5 12.125L13.75 17.025V24.125L5 19.2625V12.125ZM16.25 24.125V17.025L20 14.925V18.75L22.5 17.5V13.525L25 12.1375V19.2625L16.25 24.125Z" fill="#98F3FD"/>
</svg>
