<svg width="30" height="30" viewBox="0 0 30 30" fill="none" xmlns="http://www.w3.org/2000/svg">
<path d="M15 18.75C17.0711 18.75 18.75 17.0711 18.75 15C18.75 12.9289 17.0711 11.25 15 11.25C12.9289 11.25 11.25 12.9289 11.25 15C11.25 17.0711 12.9289 18.75 15 18.75Z" fill="#73CAB2"/>
<path d="M16.25 5.08625V2.5H13.75V5.08625C11.5502 5.36669 9.50582 6.36967 7.93775 7.93775C6.36967 9.50582 5.36669 11.5502 5.08625 13.75H2.5V16.25H5.08625C5.36649 18.4499 6.3694 20.4944 7.93751 22.0625C9.50563 23.6306 11.5501 24.6335 13.75 24.9137V27.5H16.25V24.9137C18.4499 24.6335 20.4944 23.6306 22.0625 22.0625C23.6306 20.4944 24.6335 18.4499 24.9137 16.25H27.5V13.75H24.9137C24.6333 11.5502 23.6303 9.50582 22.0623 7.93775C20.4942 6.36967 18.4498 5.36669 16.25 5.08625ZM15 22.5C10.8638 22.5 7.5 19.1362 7.5 15C7.5 10.8638 10.8638 7.5 15 7.5C19.1362 7.5 22.5 10.8638 22.5 15C22.5 19.1362 19.1362 22.5 15 22.5Z" fill="#73CAB2"/>
</svg>
