<svg width="30" height="30" fill="none" xmlns="http://www.w3.org/2000/svg"><path d="M15 12.5c1.439 0 2.5-1.06 2.5-2.5S16.439 7.5 15 7.5c-1.438 0-2.5 1.06-2.5 2.5s1.063 2.5 2.5 2.5Zm0 1.25c-2.761 0-5 2.015-5 4.5v.483h10v-.483c0-2.485-2.239-4.5-5-4.5Z" fill="#E4A9B7"/><path d="M23.75 2.5H6.25A2.503 2.503 0 0 0 3.75 5v16.25c0 1.379 1.121 2.5 2.5 2.5h5L15 27.5l3.75-3.75h5c1.379 0 2.5-1.121 2.5-2.5V5c0-1.379-1.121-2.5-2.5-2.5ZM17.5 21.25l-2.5 2.5-2.5-2.5H6.25V5h17.5l.003 16.25H17.5Z" fill="#E4A9B7"/></svg>