<svg width="30" height="30" viewBox="0 0 30 30" fill="none" xmlns="http://www.w3.org/2000/svg">
<path d="M15 12.5C16.4388 12.5 17.5 11.44 17.5 10C17.5 8.56 16.4388 7.5 15 7.5C13.5625 7.5 12.5 8.56 12.5 10C12.5 11.44 13.5625 12.5 15 12.5ZM15 13.75C12.2387 13.75 10 15.765 10 18.25V18.7325H20V18.25C20 15.765 17.7613 13.75 15 13.75Z" fill="#E4A9B7"/>
<path d="M23.75 2.5H6.25C4.87125 2.5 3.75 3.62125 3.75 5V21.25C3.75 22.6287 4.87125 23.75 6.25 23.75H11.25L15 27.5L18.75 23.75H23.75C25.1287 23.75 26.25 22.6287 26.25 21.25V5C26.25 3.62125 25.1287 2.5 23.75 2.5ZM17.5 21.25L15 23.75L12.5 21.25H6.25V5H23.75L23.7525 21.25H17.5Z" fill="#E4A9B7"/>
</svg>
