<svg width="25" height="25" viewBox="0 0 25 25" fill="none" xmlns="http://www.w3.org/2000/svg">
<path d="M22.227 12.2811C22.227 11.5119 21.6034 10.8884 20.8343 10.8884H13.871V3.92513C13.871 3.15598 13.2475 2.53247 12.4783 2.53247C11.7092 2.53247 11.0857 3.15599 11.0857 3.92513V10.8884H4.12239C3.35325 10.8884 2.72974 11.5119 2.72974 12.2811C2.72974 13.0502 3.35325 13.6737 4.12239 13.6737H11.0857V20.637C11.0857 21.4062 11.7092 22.0297 12.4783 22.0297C13.2475 22.0297 13.871 21.4062 13.871 20.637V13.6737H20.8343C21.6034 13.6737 22.227 13.0502 22.227 12.2811Z" fill="white"/>
</svg>
