<svg width="30" height="30" fill="none" xmlns="http://www.w3.org/2000/svg">
    <path d="M27.5 10a.953.953 0 0 0 0-.262v-.1a.96.96 0 0 0-.087-.2.438.438 0 0 0-.063-.1l-.125-.163-.1-.075-.15-.112-11.25-6.25a1.25 1.25 0 0 0-1.25 0l-11.25 6.25-.113.087-.137.1a.513.513 0 0 0-.087.138.487.487 0 0 0-.1.125.737.737 0 0 0-.075.175.375.375 0 0 0 0 .125A.95.95 0 0 0 2.5 10v10a1.25 1.25 0 0 0 .65 1.087l11.25 6.25a.93.93 0 0 0 .162.076h.126c.205.05.42.05.624 0h.126l.175-.076 11.25-6.25A1.25 1.25 0 0 0 27.5 20V10ZM15 14.838 6.325 10l3.45-1.9 8.537 4.875L15 14.838Zm0-9.65L23.675 10l-2.8 1.563-8.537-4.888L15 5.188ZM5 12.125l8.75 4.9v7.1L5 19.262v-7.137Zm11.25 12v-7.1l3.75-2.1v3.825l2.5-1.25v-3.975l2.5-1.388v7.125l-8.75 4.863Z" fill="#98F3FD"/>
</svg>