<svg  xmlns="http://www.w3.org/2000/svg">
    <symbol id="logo" viewBox="0 0 34 21">
        <path fill="#D9534F" d="M33 16.5c3.5 6.5-12.887-2-22-2s-11 11.113-11 2S7.387 0 16.5 0 10 6.5 33 16.5Z" />
    </symbol>


    <symbol id="search" viewBox="0 0 24 24">
        <path fill="currentColor" d="M10 18a7.952 7.952 0 0 0 4.897-1.688l4.396 4.396 1.414-1.414-4.396-4.396A7.952 7.952 0 0 0 18 10c0-4.411-3.589-8-8-8s-8 3.589-8 8 3.589 8 8 8Zm0-14c3.309 0 6 2.691 6 6s-2.691 6-6 6-6-2.691-6-6 2.691-6 6-6Z"/>
        <path fill="currentColor" d="M11.412 8.586c.379.38.588.882.588 1.414h2a3.979 3.979 0 0 0-1.174-2.828c-1.514-1.512-4.14-1.512-5.652 0l1.412 1.416c.76-.758 2.07-.756 2.826-.002Z"/>
    </symbol>
    <symbol id="basket" viewBox="0 0 24 24">
        <path fill="currentColor" d="M21 9h-1.42l-3.712-6.496-1.736.992L17.277 9H6.723l3.146-5.504-1.737-.992L4.42 9H3a1.001 1.001 0 0 0-.965 1.263l2.799 10.264A2.005 2.005 0 0 0 6.764 22h10.473c.898 0 1.692-.605 1.93-1.475l2.799-10.263A.998.998 0 0 0 21 9Zm-3.764 11v1-1H6.764L4.31 11h15.38l-2.454 9Z"/>
        <path fill="currentColor" d="M9 13h2v5H9v-5Zm4 0h2v5h-2v-5Z"/>
    </symbol>


    <symbol id="plus" viewBox="0 0 25 25">
        <path fill="currentColor" d="M22.227 12.281c0-.77-.624-1.393-1.393-1.393h-6.963V3.925a1.393 1.393 0 1 0-2.785 0v6.963H4.122a1.393 1.393 0 0 0 0 2.786h6.964v6.963a1.393 1.393 0 1 0 2.785 0v-6.963h6.963c.77 0 1.393-.624 1.393-1.393Z"/>
    </symbol>


    <symbol id="arrow" viewBox="0 0 28 28">
        <path stroke="currentColor" stroke-width="2.174" stroke-linecap="square" d="M5.304 14.435h17.21m0 0s-4.878-3.208-5.87-5.87m5.87 5.87s-4.312 3.015-5.87 5.87"/>
    </symbol>


    <symbol id="package" viewBox="0 0 30 30">
        <path fill="currentColor" d="M27.5 10a.953.953 0 0 0 0-.262v-.1a.96.96 0 0 0-.087-.2.438.438 0 0 0-.063-.1l-.125-.163-.1-.075-.15-.112-11.25-6.25a1.25 1.25 0 0 0-1.25 0l-11.25 6.25-.113.087-.137.1a.513.513 0 0 0-.087.138.487.487 0 0 0-.1.125.737.737 0 0 0-.075.175.375.375 0 0 0 0 .125A.95.95 0 0 0 2.5 10v10a1.25 1.25 0 0 0 .65 1.087l11.25 6.25a.93.93 0 0 0 .162.076h.126c.205.05.42.05.624 0h.126l.175-.076 11.25-6.25A1.25 1.25 0 0 0 27.5 20V10ZM15 14.838 6.325 10l3.45-1.9 8.537 4.875L15 14.838Zm0-9.65L23.675 10l-2.8 1.563-8.537-4.888L15 5.188ZM5 12.125l8.75 4.9v7.1L5 19.262v-7.137Zm11.25 12v-7.1l3.75-2.1v3.825l2.5-1.25v-3.975l2.5-1.388v7.125l-8.75 4.863Z"/>
    </symbol>
    <symbol id="loader" viewBox="0 0 30 30">
        <path fill="currentColor" d="M15 27.5a2.5 2.5 0 1 0 0-5 2.5 2.5 0 0 0 0 5ZM15 7.5a2.5 2.5 0 1 0 0-5 2.5 2.5 0 0 0 0 5ZM7.929 24.571a2.5 2.5 0 1 0 0-5 2.5 2.5 0 0 0 0 5ZM22.071 10.429a2.5 2.5 0 1 0 0-5 2.5 2.5 0 0 0 0 5ZM5 17.501A2.501 2.501 0 1 0 5 12.5 2.501 2.501 0 0 0 5 17.5ZM25 17.5a2.5 2.5 0 1 0 0-5 2.5 2.5 0 0 0 0 5ZM7.929 10.43a2.5 2.5 0 1 0 0-5 2.5 2.5 0 0 0 0 5ZM22.071 24.573a2.5 2.5 0 1 0 0-5 2.5 2.5 0 0 0 0 5Z"/>
    </symbol>
    <symbol id="user" viewBox="0 0 30 30">
        <path fill="currentColor" d="M15 12.5c1.439 0 2.5-1.06 2.5-2.5S16.439 7.5 15 7.5c-1.438 0-2.5 1.06-2.5 2.5s1.063 2.5 2.5 2.5Zm0 1.25c-2.761 0-5 2.015-5 4.5v.483h10v-.483c0-2.485-2.239-4.5-5-4.5Z"/>
        <path fill="currentColor" d="M23.75 2.5H6.25A2.503 2.503 0 0 0 3.75 5v16.25c0 1.379 1.121 2.5 2.5 2.5h5L15 27.5l3.75-3.75h5c1.379 0 2.5-1.121 2.5-2.5V5c0-1.379-1.121-2.5-2.5-2.5ZM17.5 21.25l-2.5 2.5-2.5-2.5H6.25V5h17.5l.003 16.25H17.5Z"/>
    </symbol>
    <symbol id="target" viewBox="0 0 30 30">
        <path fill="currentColor" d="M15 18.75a3.75 3.75 0 1 0 0-7.5 3.75 3.75 0 0 0 0 7.5Z"/>
        <path fill="currentColor" d="M16.25 5.086V2.5h-2.5v2.586a10.01 10.01 0 0 0-8.664 8.664H2.5v2.5h2.586a10.009 10.009 0 0 0 8.664 8.664V27.5h2.5v-2.586a10.008 10.008 0 0 0 8.664-8.664H27.5v-2.5h-2.586a10.01 10.01 0 0 0-8.664-8.664ZM15 22.5c-4.136 0-7.5-3.364-7.5-7.5s3.364-7.5 7.5-7.5 7.5 3.364 7.5 7.5-3.364 7.5-7.5 7.5Z"/>
    </symbol>


</svg>