<svg  xmlns="http://www.w3.org/2000/svg">
    <symbol id="logo" viewBox="0 0 34 21">
        <path fill="#D9534F" d="M33 16.5c3.5 6.5-12.887-2-22-2s-11 11.113-11 2S7.387 0 16.5 0 10 6.5 33 16.5Z" />
    </symbol>

    <symbol id="search" viewBox="0 0 24 24">
        <path fill="currentColor" d="M10 18a7.952 7.952 0 0 0 4.897-1.688l4.396 4.396 1.414-1.414-4.396-4.396A7.952 7.952 0 0 0 18 10c0-4.411-3.589-8-8-8s-8 3.589-8 8 3.589 8 8 8Zm0-14c3.309 0 6 2.691 6 6s-2.691 6-6 6-6-2.691-6-6 2.691-6 6-6Z"/>
        <path fill="currentColor" d="M11.412 8.586c.379.38.588.882.588 1.414h2a3.979 3.979 0 0 0-1.174-2.828c-1.514-1.512-4.14-1.512-5.652 0l1.412 1.416c.76-.758 2.07-.756 2.826-.002Z"/>
    </symbol>
    <symbol id="basket" viewBox="0 0 24 24">
        <path fill="currentColor" d="M21 9h-1.42l-3.712-6.496-1.736.992L17.277 9H6.723l3.146-5.504-1.737-.992L4.42 9H3a1.001 1.001 0 0 0-.965 1.263l2.799 10.264A2.005 2.005 0 0 0 6.764 22h10.473c.898 0 1.692-.605 1.93-1.475l2.799-10.263A.998.998 0 0 0 21 9Zm-3.764 11v1-1H6.764L4.31 11h15.38l-2.454 9Z"/>
        <path fill="currentColor" d="M9 13h2v5H9v-5Zm4 0h2v5h-2v-5Z"/>
    </symbol>

    <symbol id="plus" viewBox="0 0 25 25">
        <path fill="black" d="M22.227 12.281c0-.77-.624-1.393-1.393-1.393h-6.963V3.925a1.393 1.393 0 1 0-2.785 0v6.963H4.122a1.393 1.393 0 0 0 0 2.786h6.964v6.963a1.393 1.393 0 1 0 2.785 0v-6.963h6.963c.77 0 1.393-.624 1.393-1.393Z"/>
    </symbol>
</svg>